# xmcd
#
# Track frame offsets:
#	150
#	16574
#	36274
#	49770
#	67055
#	83980
#	103692
#	122261
#	142132
#	158598
#	188708
#
# Disc length: 3124 seconds
#
# Revision: 1
# Processed by: cddbd v1.5.2PL0 Copyright (c) Steve Scherf et al.
# Submitted via: audiograbber 1.83.01
#
DISCID=8a0c320b
DTITLE=Daughty - Daughty
DYEAR=1900
DGENRE=Karaoke
TTITLE0=It's not over
TTITLE1=Home
TTITLE2=What I want
TTITLE3=Over you
TTITLE4=Crashed
TTITLE5=What about now
TTITLE6=Feels like tonight
TTITLE7=No surprise
TTITLE8=Life after you
TTITLE9=September
TTITLE10=Data Track
EXTD=
EXTT0=
EXTT1=
EXTT2=
EXTT3=
EXTT4=
EXTT5=
EXTT6=
EXTT7=
EXTT8=
EXTT9=
EXTT10=
PLAYORDER=
